<?xml version="1.0" encoding="UTF-8"?>
<svg version="1.1" xmlns="http://www.w3.org/2000/svg" width="240" height="86">
<path d="M0 0 C79.2 0 158.4 0 240 0 C240 28.38 240 56.76 240 86 C160.8 86 81.6 86 0 86 C0 57.62 0 29.24 0 0 Z " fill="#99B3DE" transform="translate(0,0)"/>
<path d="M0 0 C1.625 1.8125 1.625 1.8125 2.125 4.1875 C1.26316212 8.71214889 -1.02465456 10.87985552 -4.76171875 13.4609375 C-11.75894953 17.8125 -11.75894953 17.8125 -15.375 17.8125 C-15.375 18.4725 -15.375 19.1325 -15.375 19.8125 C-6.54034138 18.36419531 1.2914631 14.99070424 8 8.9375 C10.625 6.8125 10.625 6.8125 13.5 6.5 C14.20125 6.603125 14.9025 6.70625 15.625 6.8125 C14.27096391 13.71808408 9.1225148 17.71374004 3.5 21.5 C-5.16427093 26.7126508 -15.10899528 30.76320621 -25.375 28.8125 C-28.12332983 27.41972937 -29.31186869 26.21019315 -31.375 23.8125 C-31.375 22.8225 -31.375 21.8325 -31.375 20.8125 C-39.07690833 19.84880559 -39.07690833 19.84880559 -46.08203125 22.59375 C-47.72304565 24.06161799 -49.3598453 25.53421287 -50.9921875 27.01171875 C-54.19270921 29.43047368 -56.45907047 29.79019504 -60.39453125 29.4140625 C-63.70595935 28.40822438 -65.3526855 26.52998511 -67.375 23.8125 C-67.87 22.3275 -67.87 22.3275 -68.375 20.8125 C-69.09945312 21.245625 -69.82390625 21.67875 -70.5703125 22.125 C-71.53710938 22.681875 -72.50390625 23.23875 -73.5 23.8125 C-74.92699219 24.6478125 -74.92699219 24.6478125 -76.3828125 25.5 C-79.67906581 26.94587613 -81.81496566 27.20187876 -85.375 26.8125 C-87.25 25 -87.25 25 -88.375 22.8125 C-88.375 21.8225 -88.375 20.8325 -88.375 19.8125 C-89.08785156 20.21082031 -89.80070312 20.60914062 -90.53515625 21.01953125 C-106.32461175 29.75367151 -106.32461175 29.75367151 -112.375 28.8125 C-114.75 26.9375 -114.75 26.9375 -116.375 24.8125 C-116.375 24.1525 -116.375 23.4925 -116.375 22.8125 C-117.035 22.8125 -117.695 22.8125 -118.375 22.8125 C-118.98769147 15.5827407 -118.98769147 15.5827407 -116.1875 12.0625 C-115.259375 11.32 -114.33125 10.5775 -113.375 9.8125 C-112.653125 9.173125 -111.93125 8.53375 -111.1875 7.875 C-107.80327697 5.39323644 -104.47653045 4.00586777 -100.5625 2.5625 C-99.88896484 2.294375 -99.21542969 2.02625 -98.52148438 1.75 C-93.61722419 -0.0896842 -89.60543763 -0.44521473 -84.375 -0.1875 C-84.37890625 2.05859375 -84.37890625 2.05859375 -85.375 4.8125 C-87.83605429 6.55577908 -90.55074429 7.68388842 -93.3125 8.875 C-94.78503737 9.52107417 -96.25276342 10.1782541 -97.71484375 10.84765625 C-98.36831787 11.1300415 -99.02179199 11.41242676 -99.69506836 11.70336914 C-101.80302443 13.09509192 -102.42817303 14.50792495 -103.375 16.8125 C-102.30121094 16.235 -101.22742188 15.6575 -100.12109375 15.0625 C-98.68528702 14.31175138 -97.24906688 13.56179303 -95.8125 12.8125 C-95.10802734 12.4309375 -94.40355469 12.049375 -93.67773438 11.65625 C-89.09047528 9.2886324 -85.66247532 8.1724021 -80.375 8.8125 C-78.2364515 10.9510485 -77.94844937 11.94525314 -77.375 14.8125 C-73.98848181 14.20776461 -71.89371028 13.16871284 -69.375 10.8125 C-68.92125 9.86375 -68.4675 8.915 -68 7.9375 C-65.99045523 4.07299083 -64.01593838 2.19311356 -60.375 -0.1875 C-56.625 -0.625 -56.625 -0.625 -53.375 -0.1875 C-52.385 0.8025 -52.385 0.8025 -51.375 1.8125 C-51.5 3.6875 -51.5 3.6875 -52.375 5.8125 C-53.055625 6.39 -53.73625 6.9675 -54.4375 7.5625 C-57.33903234 10.93202143 -56.66515714 13.46014283 -56.375 17.8125 C-52.60245547 17.30269669 -50.92512877 16.60549818 -48.375 13.8125 C-47.715 13.8125 -47.055 13.8125 -46.375 13.8125 C-46.33375 12.78125 -46.2925 11.75 -46.25 10.6875 C-45.29537948 6.45989482 -44.2619017 4.69963311 -41.140625 1.8359375 C-39.375 0.8125 -39.375 0.8125 -35.5 0.9375 C-34.46875 1.22625 -33.4375 1.515 -32.375 1.8125 C-32.23214286 9.24107143 -32.23214286 9.24107143 -33.375 12.8125 C-30.23596671 11.04679377 -27.39688183 9.0832462 -24.5625 6.875 C-17.94591383 1.84689482 -8.376772 -4.188386 0 0 Z " fill="#1A60C1" transform="translate(190.375,29.1875)"/>
<path d="M0 0 C2.79117711 0.67893497 3.7695018 1.12618705 5.3125 3.5625 C5.91302043 8.80407954 4.65689446 11.16727312 1.4375 15.25 C1.03257324 15.76401367 0.62764648 16.27802734 0.21044922 16.80761719 C-1.0687995 18.41023564 -2.37308739 19.98863804 -3.6875 21.5625 C-4.491875 22.53316406 -5.29625 23.50382812 -6.125 24.50390625 C-12.71815378 32.10082543 -21.57964957 41.64111198 -32.0625 43 C-36.77602136 42.43112673 -38.54238434 41.08203419 -41.6875 37.5625 C-42.5625 33.75 -42.5625 33.75 -42.6875 30.5625 C-43.41195312 31.10519531 -44.13640625 31.64789063 -44.8828125 32.20703125 C-46.33300781 33.28017578 -46.33300781 33.28017578 -47.8125 34.375 C-48.76382813 35.08269531 -49.71515625 35.79039063 -50.6953125 36.51953125 C-55.95678369 40.11189343 -60.1914464 42.62549059 -66.6875 41.5625 C-70.44148756 38.36761697 -71.45821794 36.77144178 -72.375 31.9375 C-71.71870225 23.06906625 -65.73886553 15.26949055 -60.5625 8.375 C-59.93335693 7.52772339 -59.93335693 7.52772339 -59.29150391 6.66333008 C-57.54322289 4.42811173 -56.1495429 2.76720255 -53.52734375 1.60546875 C-51.6875 1.5625 -51.6875 1.5625 -49.375 3.0625 C-47.6875 5.5625 -47.6875 5.5625 -47.5 8.6875 C-48.40100733 13.19253664 -51.29955334 16.50232974 -54.09375 20.03515625 C-55.90940141 22.91438778 -56.33652643 25.20387795 -56.6875 28.5625 C-49.29429208 27.8446088 -45.57172299 23.86881634 -40.6875 18.5625 C-38.47502542 15.5317129 -36.44048947 12.45832329 -34.4765625 9.26171875 C-32.74181714 6.64445009 -31.08722303 4.58484723 -28.6875 2.5625 C-25.94323284 2.75851908 -24.13539508 3.33855246 -21.6875 4.5625 C-21.6875 10.02836177 -23.16271999 12.42479078 -26.75 16.5625 C-30.28729769 20.56813952 -30.28729769 20.56813952 -31.25 25.625 C-30.99564853 28.44151861 -30.99564853 28.44151861 -29.6875 29.5625 C-25.58103066 29.73011099 -23.6669938 29.43276323 -20.55078125 26.6640625 C-16.17754833 21.79772938 -12.28075277 16.96454491 -10.375 10.625 C-8.52730669 5.52691427 -5.51675045 1.1546687 0 0 Z " fill="#185FC0" transform="translate(77.6875,15.4375)"/>
<path d="M0 0 C2.40341094 1.41159239 4.58346256 3.01533406 6.83203125 4.66015625 C10.85041731 7.14359124 14.50644638 6.25422189 18.9375 5.5 C19.618125 5.335 20.29875 5.17 21 5 C20 8 20 8 17.6015625 9.3515625 C16.61929688 9.77179687 15.63703125 10.19203125 14.625 10.625 C13.64789063 11.05039062 12.67078125 11.47578125 11.6640625 11.9140625 C5.91876955 14.25598543 -0.057784 15.25103533 -6.1171875 13.328125 C-7.40462191 12.78006055 -8.68983426 12.22674397 -9.97265625 11.66796875 C-13.57960808 10.4795511 -17.24929929 10.76558121 -21 11 C-19.54983806 7.36671383 -17.77807683 5.88258423 -14.5 3.8125 C-13.7059375 3.30332031 -12.911875 2.79414063 -12.09375 2.26953125 C-8.08788701 -0.15939687 -4.64339629 -0.88256334 0 0 Z " fill="#63C06B" transform="translate(123,10)"/>
<path d="M0 0 C2.9375 0.8125 2.9375 0.8125 4.9375 2.8125 C4.36057692 9.38942308 4.36057692 9.38942308 2.9375 10.8125 C-0.5 11 -0.5 11 -4.0625 10.8125 C-6.0625 8.8125 -6.0625 8.8125 -6.375 5.875 C-6.0625 2.8125 -6.0625 2.8125 -4.9375 0.875 C-3.0625 -0.1875 -3.0625 -0.1875 0 0 Z " fill="#89D584" transform="translate(180.0625,67.1875)"/>
<path d="M0 0 C3.5 0.25 3.5 0.25 5.5 2.25 C4.92307692 8.82692308 4.92307692 8.82692308 3.5 10.25 C0.0625 10.4375 0.0625 10.4375 -3.5 10.25 C-5.5 8.25 -5.5 8.25 -5.75 5.25 C-5.37802459 0.78629509 -4.42019834 0.31572845 0 0 Z " fill="#88D580" transform="translate(192.5,67.75)"/>
<path d="M0 0 C2.4375 0.75 2.4375 0.75 4.4375 2.75 C4.0625 4.875 4.0625 4.875 3.4375 6.75 C1.1275 6.75 -1.1825 6.75 -3.5625 6.75 C-3.2325 7.41 -2.9025 8.07 -2.5625 8.75 C-0.5825 8.75 1.3975 8.75 3.4375 8.75 C3.1075 9.41 2.7775 10.07 2.4375 10.75 C-2.9445598 11.10880399 -2.9445598 11.10880399 -5.5 9.625 C-6.5625 7.75 -6.5625 7.75 -6.4375 4.6875 C-5.31039351 0.90364248 -4.04478927 -0.39461359 0 0 Z " fill="#8BCF92" transform="translate(211.5625,67.25)"/>
<path d="M0 0 C3.1770422 0.55252908 3.80091982 1.1927392 5.875 3.5 C5.23691406 3.48839844 4.59882813 3.47679688 3.94140625 3.46484375 C3.11511719 3.45582031 2.28882813 3.44679688 1.4375 3.4375 C0.61378906 3.42589844 -0.20992187 3.41429688 -1.05859375 3.40234375 C-3.11663938 3.26732652 -3.11663938 3.26732652 -4.125 4.5 C-4.35418242 8.51657143 -4.35418242 8.51657143 -4.125 12.5 C-2.30690523 14.75195569 -2.30690523 14.75195569 0.3125 14.6875 C2.99439103 14.59695513 2.99439103 14.59695513 5.875 13.5 C5.875 14.16 5.875 14.82 5.875 15.5 C3.342893 17.15560842 1.9416578 17.5013887 -1.125 17.4375 C-4.95947038 16.23922801 -6.12686745 14.95830634 -8.125 11.5 C-8.6875 8.5 -8.6875 8.5 -8.125 5.5 C-5.60820873 2.09492945 -4.22095697 0.67535311 0 0 Z " fill="#89D386" transform="translate(166.125,61.5)"/>
<path d="M0 0 C-0.36834013 2.65204896 -0.6867691 3.73840056 -2.77734375 5.484375 C-3.49019531 5.90203125 -4.20304688 6.3196875 -4.9375 6.75 C-6.00291016 7.39195313 -6.00291016 7.39195313 -7.08984375 8.046875 C-9 9 -9 9 -11 9 C-10.71180351 5.54164207 -10.21034962 4.21619267 -7.75 1.6875 C-4.7990854 -0.12328851 -3.38489309 -0.38684492 0 0 Z " fill="#88A7DA" transform="translate(182,35)"/>
<path d="M0 0 C1.67542976 0.28604898 3.34385343 0.61781233 5 1 C5.625 3.375 5.625 3.375 6 6 C5.34 6.66 4.68 7.32 4 8 C1.375 7.625 1.375 7.625 -1 7 C-1.04254356 5.00045254 -1.04080783 2.99958364 -1 1 C-0.67 0.67 -0.34 0.34 0 0 Z " fill="#99B9D7" transform="translate(177,69)"/>
<path d="M0 0 C1.67542976 0.28604898 3.34385343 0.61781233 5 1 C5.625 3.375 5.625 3.375 6 6 C5.34 6.66 4.68 7.32 4 8 C0.46428571 7.46428571 0.46428571 7.46428571 -1 6 C-1.125 3.5 -1.125 3.5 -1 1 C-0.67 0.67 -0.34 0.34 0 0 Z " fill="#9AB8DA" transform="translate(190,69)"/>
<path d="M0 0 C1.4540625 0.0309375 1.4540625 0.0309375 2.9375 0.0625 C2.9375 0.7225 2.9375 1.3825 2.9375 2.0625 C1.2875 1.7325 -0.3625 1.4025 -2.0625 1.0625 C-2.0625 2.0525 -2.0625 3.0425 -2.0625 4.0625 C-0.4125 4.3925 1.2375 4.7225 2.9375 5.0625 C3.5 7 3.5 7 3.9375 9.0625 C2.9375 10.0625 2.9375 10.0625 -0.125 10.125 C-1.094375 10.104375 -2.06375 10.08375 -3.0625 10.0625 C-3.3925 9.4025 -3.7225 8.7425 -4.0625 8.0625 C-2.4125 8.0625 -0.7625 8.0625 0.9375 8.0625 C1.2675 7.4025 1.5975 6.7425 1.9375 6.0625 C0.2875 5.7325 -1.3625 5.4025 -3.0625 5.0625 C-3.625 3.125 -3.625 3.125 -4.0625 1.0625 C-3.0625 0.0625 -3.0625 0.0625 0 0 Z " fill="#88D77B" transform="translate(229.0625,67.9375)"/>
<path d="M0 0 C2.97 0.33 5.94 0.66 9 1 C9 1.33 9 1.66 9 2 C6.69 2 4.38 2 2 2 C2.99 3.485 2.99 3.485 4 5 C7.08365871 5.2502157 7.08365871 5.2502157 10 5 C9.67 5.66 9.34 6.32 9 7 C3.54545455 7.36363636 3.54545455 7.36363636 1.125 5.75 C0 4 0 4 0 0 Z " fill="#87D77B" transform="translate(205,71)"/>
<path d="M0 0 C1.98 0 3.96 0 6 0 C5.01 0.66 4.02 1.32 3 2 C2.42251197 3.96361864 2.42251197 3.96361864 2.3125 6.125 C2.209375 7.40375 2.10625 8.6825 2 10 C1.34 10 0.68 10 0 10 C0 6.7 0 3.4 0 0 Z " fill="#88D581" transform="translate(218,68)"/>
<path d="M0 0 C0.66 0.33 1.32 0.66 2 1 C0.515 2.485 0.515 2.485 -1 4 C-0.67 4.66 -0.34 5.32 0 6 C-1.65 6.33 -3.3 6.66 -5 7 C-4.60196439 4.11424181 -4.20990931 3.17810487 -1.9375 1.25 C-1.298125 0.8375 -0.65875 0.425 0 0 Z " fill="#87A4D9" transform="translate(92,39)"/>
<path d="M0 0 C-0.33 0.99 -0.66 1.98 -1 3 C-4.41270242 4.51675663 -7.44169126 3.72783588 -11 3 C-11 2.67 -11 2.34 -11 2 C-3.375 0 -3.375 0 0 0 Z " fill="#6CC089" transform="translate(144,15)"/>
<path d="M0 0 C1.65 0.33 3.3 0.66 5 1 C5 1.66 5 2.32 5 3 C2.69 3 0.38 3 -2 3 C-1.34 2.01 -0.68 1.02 0 0 Z " fill="#97BBCF" transform="translate(209,69)"/>
<path d="M0 0 C0.66 0.33 1.32 0.66 2 1 C1.34 1.66 0.68 2.32 0 3 C0.99 3.66 1.98 4.32 3 5 C0.69 5.33 -1.62 5.66 -4 6 C-2.84826645 3.53199953 -1.95216435 1.95216435 0 0 Z " fill="#6EC08D" transform="translate(106,15)"/>
</svg>
