<?xml version="1.0" encoding="UTF-8"?>
<svg width="18px" height="19px" viewBox="0 0 18 19" version="1.1" xmlns="http://www.w3.org/2000/svg" xmlns:xlink="http://www.w3.org/1999/xlink">
    <!-- Generator: Sketch 63.1 (92452) - https://sketch.com -->
    <title>Fill 4</title>
    <desc>Created with Sketch.</desc>
    <g id="Symbols" stroke="none" stroke-width="1" fill="none" fill-rule="evenodd">
        <g id="footer" transform="translate(-116.000000, -167.000000)" fill="#0F4194">
            <g id="Group-14">
                <g id="Group-12" transform="translate(0.000000, 156.000000)">
                    <path d="M128.130396,16.1939357 L128.123914,17.229406 L127.169237,17.2389057 C126.09048,17.2484054 126.156224,17.2389057 126.040478,17.4289003 C125.921953,17.6283945 125.913619,17.6948926 125.913619,18.5118692 L125.913619,19.2537979 L128.1341,19.2537979 L128.1341,21.2002921 L125.913619,21.2002921 L125.913619,27.023625 L123.776477,27.023625 L123.776477,21.2002921 L121.867123,21.2002921 L121.867123,19.2537979 L123.776477,19.2537979 L123.776477,18.5508181 C123.776477,17.7803902 123.796848,17.5523967 123.892223,17.2009068 C124.153347,16.251884 124.850604,15.4814561 125.670089,15.2534627 C125.969178,15.1679651 126.097888,15.1584654 127.154421,15.1584654 L128.1341,15.1584654 L128.130396,16.1939357 Z M124.458918,11.0165843 C123.298675,11.0925821 122.144915,11.4060731 121.100419,11.9380578 C118.56696,13.2300207 116.738166,15.7008998 116.179805,18.6068665 C115.788119,20.6398081 116.040909,22.7677471 116.893729,24.6296936 C118.116012,27.2991171 120.45872,29.218062 123.205152,29.8070451 C125.133025,30.2250331 127.148866,29.9590407 128.911916,29.0565666 C130.735154,28.1255933 132.226894,26.5486386 133.106567,24.6296936 C133.526033,23.7177198 133.801972,22.7392479 133.9242,21.7322768 C134.151063,19.8893297 133.865864,18.0273831 133.106567,16.3744305 C132.226894,14.4459859 130.735154,12.8690311 128.911916,11.9475575 C127.532218,11.235078 125.992327,10.921587 124.458918,11.0165843 L124.458918,11.0165843 Z" id="Fill-4"></path>
                </g>
            </g>
        </g>
    </g>
</svg>