<?xml version="1.0" encoding="UTF-8"?>
<svg width="18px" height="18px" viewBox="0 0 18 18" version="1.1" xmlns="http://www.w3.org/2000/svg" xmlns:xlink="http://www.w3.org/1999/xlink">
    <!-- Generator: Sketch 63.1 (92452) - https://sketch.com -->
    <title>Fill-4</title>
    <desc>Created with Sketch.</desc>
    <g id="Symbols" stroke="none" stroke-width="1" fill="none" fill-rule="evenodd">
        <g id="footer" transform="translate(-64.000000, -168.000000)" fill="#0F4194">
            <g id="Group-14">
                <g id="Group-12" transform="translate(0.000000, 156.000000)">
                    <path d="M78.8839505,16.19616 C78.8839505,16.79232 78.3999999,17.2761601 77.8044444,17.2761601 C77.2079012,17.2761601 76.7239506,16.79232 76.7239506,16.19616 C76.7239506,15.6 77.2079012,15.1161601 77.8044444,15.1161601 C78.3999999,15.1161601 78.8839505,15.6 78.8839505,16.19616 M72.9995062,24 C71.3432099,24 70,22.65696 70,21 C70,19.34304 71.3432099,18 72.9995062,18 C74.6567901,18 76,19.34304 76,21 C76,22.65696 74.6567901,24 72.9995062,24 M72.9995062,16.3785601 C70.4474074,16.3785601 68.3782716,18.4483201 68.3782716,21.0000001 C68.3782716,23.55264 70.4474074,25.6214401 72.9995062,25.6214401 C75.5525926,25.6214401 77.6217284,23.55264 77.6217284,21.0000001 C77.6217284,18.4483201 75.5525926,16.3785601 72.9995062,16.3785601 M72.9995062,13.6214401 C75.4034567,13.6214401 75.6879011,13.63104 76.6370371,13.67424 C77.514074,13.71456 77.9901234,13.8604801 78.3081482,13.9843201 C78.7279012,14.14752 79.0281481,14.3424001 79.3422221,14.6572801 C79.657284,14.9731201 79.8518518,15.2726401 80.0158024,15.6931201 C80.1392593,16.00992 80.2854321,16.4860801 80.3259259,17.36352 C80.3683951,18.31296 80.3782716,18.59712 80.3782716,21.00096 C80.3782716,23.40384 80.3683951,23.68896 80.3259259,24.63744 C80.2854321,25.51488 80.1392593,25.9910401 80.0158024,26.3078401 C79.8518518,26.72832 79.657284,27.0278401 79.3422221,27.3427201 C79.0281481,27.6576001 78.7279012,27.85344 78.3081482,28.01664 C77.9901234,28.13952 77.514074,28.2864 76.6370371,28.32672 C75.6879011,28.3699201 75.4034567,28.3785601 72.9995062,28.3785601 C70.5965432,28.3785601 70.3120988,28.3699201 69.362963,28.32672 C68.4859259,28.2864 68.0088889,28.13952 67.6918518,28.01664 C67.2720988,27.85344 66.9718519,27.6576001 66.6577778,27.3427201 C66.342716,27.0278401 66.1471605,26.72928 65.9841975,26.3078401 C65.8607407,25.9910401 65.7145679,25.51488 65.6740741,24.63744 C65.6306173,23.6880001 65.6217284,23.40384 65.6217284,21.00096 C65.6217284,18.59712 65.6306173,18.31296 65.6740741,17.36352 C65.7145679,16.4860801 65.8607407,16.00992 65.9841975,15.6931201 C66.1471605,15.2726401 66.342716,14.9731201 66.6577778,14.6572801 C66.9718519,14.3424001 67.2720988,14.14752 67.6918518,13.9843201 C68.0088889,13.8604801 68.4859259,13.71456 69.362963,13.67424 C70.3120988,13.63104 70.5965432,13.6214401 72.9995062,13.6214401 M72.9995062,12 C70.5560494,12 70.2488889,12.0105601 69.2898765,12.05472 C68.3318518,12.0979201 67.677037,12.2505601 67.1051852,12.47232 C66.5135802,12.7027201 66.0108642,13.0108801 65.5111111,13.5110401 C65.0103704,14.0112001 64.7032099,14.5132801 64.4730864,15.10464 C64.2508642,15.6777601 64.0977778,16.33248 64.054321,17.2896001 C64.0108642,18.2496001 64,18.55584 64,21 C64,23.44416 64.0108642,23.75136 64.054321,24.7104001 C64.0977778,25.6684801 64.2508642,26.3232 64.4730864,26.8963201 C64.7032099,27.4876801 65.0103704,27.9888 65.5111111,28.48992 C66.0108642,28.99008 66.5135802,29.2972801 67.1051852,29.52768 C67.677037,29.7504001 68.3318518,29.90208 69.2898765,29.94624 C70.2488889,29.9894401 70.5560494,30 72.9995062,30 C75.4439506,30 75.7511111,29.9894401 76.7101235,29.94624 C77.6681481,29.90208 78.3229629,29.7504001 78.8948148,29.52768 C79.4864197,29.2972801 79.9891357,28.99008 80.4888888,28.48992 C80.9896296,27.9888 81.29679,27.4876801 81.5269136,26.8963201 C81.7491358,26.3232 81.9022221,25.6684801 81.945679,24.7104001 C81.9891358,23.75136 82,23.44416 82,21 C82,18.55584 81.9891358,18.2496001 81.945679,17.2896001 C81.9022221,16.33248 81.7491358,15.6777601 81.5269136,15.10464 C81.29679,14.5132801 80.9896296,14.0112001 80.4888888,13.5110401 C79.9891357,13.0108801 79.4864197,12.7027201 78.8948148,12.47232 C78.3229629,12.2505601 77.6681481,12.0979201 76.7101235,12.05472 C75.7511111,12.0105601 75.4439506,12 72.9995062,12" id="Fill-4"></path>
                </g>
            </g>
        </g>
    </g>
</svg>