<?xml version="1.0" encoding="UTF-8"?>
<svg width="18px" height="18px" viewBox="0 0 18 18" version="1.1" xmlns="http://www.w3.org/2000/svg" xmlns:xlink="http://www.w3.org/1999/xlink">
    <!-- Generator: Sketch 63.1 (92452) - https://sketch.com -->
    <title>Fill 6</title>
    <desc>Created with Sketch.</desc>
    <g id="Symbols" stroke="none" stroke-width="1" fill="none" fill-rule="evenodd">
        <g id="footer" transform="translate(-168.000000, -168.000000)" fill="#0F4194">
            <g id="Group-14">
                <g id="Group-12" transform="translate(0.000000, 156.000000)">
                    <path d="M172.004018,14.481 C172.858182,14.481 173.551091,15.17 173.551091,16.03 C173.551091,16.88 172.858182,17.58 172.004018,17.58 C171.146921,17.58 170.45499,16.88 170.45499,16.03 C170.45499,15.17 171.146921,14.481 172.004018,14.481 Z M175.014117,18.75 L177.573678,18.75 L177.573678,19.93 L177.609838,19.93 C177.966554,19.251 178.837333,18.541 180.136171,18.541 C182.839396,18.541 183.338799,20.32 183.338799,22.63 L183.338799,27.34 L180.66978,27.34 L180.66978,23.16 C180.66978,22.17 180.652188,20.89 179.282984,20.89 C177.892279,20.89 177.681181,21.97 177.681181,23.09 L177.681181,27.34 L175.014117,27.34 L175.014117,18.75 Z M170.667065,27.34 L173.339993,27.34 L173.339993,18.75 L170.667065,18.75 L170.667065,27.34 Z M169.32718,30 L184.668911,30 C185.402867,30 186,29.42 186,28.701 L186,13.3 C186,12.58 185.402867,12 184.668911,12 L169.32718,12 C168.595179,12 168,12.58 168,13.3 L168,28.701 C168,29.42 168.595179,30 169.32718,30 L169.32718,30 Z" id="Fill-6"></path>
                </g>
            </g>
        </g>
    </g>
</svg>