<?xml version="1.0" encoding="UTF-8"?>
<svg id="Laag_1" xmlns="http://www.w3.org/2000/svg" version="1.1" viewBox="0 0 217.4 42.3">
  <!-- Generator: Adobe Illustrator 29.5.1, SVG Export Plug-In . SVG Version: 2.1.0 Build 141)  -->
  <defs>
    <style>
      .st0 {
        fill: #fff;
      }

      .st1 {
        fill: #94c120;
      }
    </style>
  </defs>
  <path class="st0" d="M.8,14.9v-6.5C.8,2,4.2.5,9.9.5h10.2c5.7,0,9.1,1.5,9.1,7.9v6.5c0,6.4-3.4,7.9-9.1,7.9h-10.2c-5.7,0-9.1-1.5-9.1-7.9ZM22.7,12.8v-2.4c0-2.7-.6-4.4-4-4.4h-7.4c-3.3,0-4,1.7-4,4.4v2.4c0,3.2.6,4.4,3.6,4.4h8.1c3,0,3.6-1.2,3.6-4.4Z"/>
  <polygon class="st0" points="217.4 .9 217.4 22.6 211.2 22.6 211.2 7 211.1 7 202.8 22.6 198.1 22.6 189.7 7 189.7 7 189.7 22.6 183.5 22.6 183.5 .9 193.3 .9 200.4 14.9 207.6 .9 217.4 .9"/>
  <path class="st1" d="M213.8,32.5c-.4,0-.7,0-.9.2-.2.2-.3.4-.3.8v1.2c0,.4.1.6.3.8.2.2.5.2.9.2s.7,0,.9-.2c.2-.2.3-.4.3-.8v-1.2c0-.4,0-.6-.3-.8-.2-.2-.5-.2-.9-.2ZM213.3,38c.1,0,.3.1.6.1h.8c1.4,0,2.1.6,2.1,1.7v.2c0,1.3-.9,2-2.8,2h-.6c-1.1,0-1.9-.2-2.4-.5v-1.3c.6.4,1.4.6,2.4.6h.5c.6,0,1,0,1.2-.2.2-.1.4-.3.4-.6h0c0-.4,0-.5-.2-.7s-.4-.2-.7-.2h-.9c-1.2,0-1.9-.4-1.9-1.3v-.2c0-.5.3-.9.8-1-1-.3-1.5-1-1.5-2v-1.2c0-.7.2-1.2.6-1.6s1-.6,1.8-.6,1.3.1,1.8.4c.2-.6.7-.9,1.4-.9h.2v1.3h-.5c-.2,0-.4,0-.6.1.3.3.4.8.4,1.4v1.2c0,.7-.2,1.2-.6,1.6-.4.4-1,.6-1.9.6s-.7.2-.7.7,0,.3.2.4h0Z"/>
  <path class="st1" d="M205.1,31.5v.4c.6-.3,1.2-.4,1.7-.4s1,.2,1.3.5c.4.3.5.8.5,1.4v6.5h-1.4v-6.3c0-.6-.3-.8-.9-.8s-.8,0-1.3.3v6.8h-1.4v-8.4h1.3,0Z"/>
  <rect class="st1" x="199.4" y="31.6" width="1.4" height="8.3"/>
  <path class="st1" d="M200.1,29.2c.5,0,.8.3.8.8s-.3.8-.8.8-.8-.3-.8-.8.3-.8.8-.8Z"/>
  <path class="st1" d="M196.5,33.4v6.5h-1.4v-6.3c0-.6-.3-.8-.9-.8s-.8,0-1.3.3v6.8h-1.4v-8.4h1.3v.4c.6-.3,1.2-.4,1.7-.4s1,.2,1.3.5c.3.3.5.8.5,1.4Z"/>
  <path class="st1" d="M187.4,37.7v-4c0-.8-.4-1.1-1.1-1.1s-1.1.4-1.1,1.1v4c0,.8.4,1.1,1.1,1.1s1.1-.4,1.1-1.1ZM183.8,33.6c0-.7.2-1.3.6-1.7s1-.6,1.9-.6,1.5.2,1.9.6c.4.4.6,1,.6,1.7v4.1c0,.7-.2,1.2-.6,1.7s-1,.6-1.9.6-1.4-.2-1.9-.6c-.4-.4-.6-1-.6-1.7v-4.1Z"/>
  <rect class="st1" x="179.5" y="31.6" width="1.4" height="8.3"/>
  <ellipse class="st1" cx="180.2" cy="30" rx=".8" ry=".8"/>
  <path class="st1" d="M177.2,38.6v1.2s0,0-.1,0-.2,0-.2,0c-.3,0-.5,0-.8,0-1.4,0-2-.7-2-2v-5.3h-.9v-1.2h.9l.4-1.5h.9v1.5h1.7v1.2h-1.7v5.2c0,.6.3.8.9.8s.6,0,.9-.2h0Z"/>
  <path class="st0" d="M173.3,8.5v6.5c0,6.4-3.4,7.9-9.1,7.9h-10.2c-5.7,0-9.1-1.5-9.1-7.9v-6.5c0-6.4,3.4-7.9,9.1-7.9h10.2c5.7,0,9.1,1.5,9.1,7.9h0ZM166.8,12.9v-2.4c0-2.7-.6-4.4-4-4.4h-7.4c-3.4,0-4,1.7-4,4.4v2.4c0,3.2.6,4.4,3.6,4.4h8.1c3,0,3.6-1.2,3.6-4.4Z"/>
  <rect class="st1" x="169.6" y="31.6" width="1.4" height="8.3"/>
  <path class="st1" d="M170.3,29.2c.5,0,.8.3.8.8s-.3.8-.8.8-.8-.3-.8-.8.3-.8.8-.8Z"/>
  <path class="st1" d="M164.1,31.5h1.2v-2.2h1.4v10.6h-1.4v-.5c-.4.4-.9.6-1.6.6s-1.1-.2-1.5-.5c-.3-.3-.5-.9-.5-1.5v-4.1c0-.7.2-1.3.6-1.7s1-.6,1.8-.6ZM165.3,38.3v-5.5h-1c-.8,0-1.2.4-1.2,1.1v3.9c0,.7.3,1,1,1s.9-.1,1.2-.4h0Z"/>
  <path class="st1" d="M158.9,33.4v6.5h-1.4v-6.3c0-.6-.3-.8-.9-.8s-.8,0-1.3.3v6.8h-1.4v-8.4h1.3v.4c.6-.3,1.2-.4,1.7-.4s1,.2,1.3.5c.3.3.5.8.5,1.4Z"/>
  <path class="st1" d="M149.8,37.7v-4c0-.8-.4-1.1-1.1-1.1s-1.1.4-1.1,1.1v4c0,.8.4,1.1,1.1,1.1s1.1-.4,1.1-1.1ZM151.2,33.6v4.1c0,.7-.2,1.2-.6,1.7-.4.4-1,.6-1.9.6s-1.4-.2-1.9-.6c-.4-.4-.6-1-.6-1.7v-4.1c0-.7.2-1.3.6-1.7s1-.6,1.9-.6,1.5.2,1.9.6.6,1,.6,1.7Z"/>
  <path class="st1" d="M139.6,33.6c0-1.5.9-2.2,2.6-2.2s1.1,0,1.6.2v1.3c-.5-.1-1-.2-1.5-.2s-.9,0-1.1.2c-.2.2-.3.4-.3.8v3.9c0,.4.1.6.3.8.2.2.6.2,1.1.2s1,0,1.5-.2v1.3c-.6.1-1.1.2-1.6.2-1.7,0-2.6-.7-2.6-2.2v-4.1h0Z"/>
  <path class="st0" d="M135,14.3v2.1c0,3.7-1.3,6.6-7.6,6.6h-10.3c-5.7,0-9.1-1.5-9.1-7.9v-6.5c0-6.4,3.4-7.9,9.1-7.9h7.5c9,0,10.2,2,10.2,8.2h-6.3v-.6c0-1.6-1.1-2-3-2h-6.9c-3.4,0-4,1.7-4,4.4v2.4c0,3.2.6,4.4,3.6,4.4h6.8c2.9,0,3.7-.3,3.7-3h6.4Z"/>
  <path class="st1" d="M133.2,32.8c-.4,0-.9.2-1.5.5v6.6h-1.4v-8.4h1.3v.6s0,0,.2-.1c0,0,.1,0,.2-.1,0,0,0,0,.1,0s.1,0,.1,0,0,0,.1,0c0,0,.1,0,.1,0,0,0,0,0,.2,0,0,0,.1,0,.2,0,.2,0,.3,0,.4,0h.3v1.3h-.4,0Z"/>
  <rect class="st1" x="126" y="31.6" width="1.4" height="8.3"/>
  <ellipse class="st1" cx="126.7" cy="30" rx=".8" ry=".8"/>
  <path class="st1" d="M119.6,38.6c.2.2.4.2.9.2s.8-.2,1.2-.5v-2.4l-1.4.4c-.4,0-.6.2-.8.4-.1.2-.2.4-.2.7v.4c0,.3,0,.6.2.7ZM121.8,39.3c-.4.4-1,.6-1.7.6-1.3,0-2-.7-2-2v-.5c0-.5.1-1,.4-1.3.3-.3.7-.6,1.3-.8l1.9-.5v-1.1c0-.4,0-.6-.3-.8-.2-.2-.6-.2-1.2-.2s-1.2,0-1.8.3v-1.2c.6-.2,1.3-.3,2.1-.3,1.7,0,2.5.8,2.5,2.3v6.2h-1.3s0-.6,0-.6Z"/>
  <rect class="st1" x="110.3" y="29.3" width="1.4" height="10.6"/>
  <path class="st1" d="M106,39.3c-.4.4-1,.6-1.7.6-1.3,0-2-.7-2-2v-.5c0-.5.1-1,.4-1.3.3-.3.7-.6,1.3-.8l1.9-.5v-1.1c0-.4,0-.6-.3-.8-.2-.2-.6-.2-1.2-.2s-1.2,0-1.8.3v-1.2c.6-.2,1.3-.3,2.1-.3,1.7,0,2.5.8,2.5,2.3v6.2h-1.3s0-.6,0-.6ZM104.8,38.9c.4,0,.8-.2,1.2-.5v-2.4l-1.4.4c-.4,0-.6.2-.8.4-.1.2-.2.4-.2.7v.4c0,.3,0,.6.2.7.1.2.4.2.9.2Z"/>
  <polygon class="st0" points="99.7 .8 88.2 15 88.2 22.6 81.9 22.6 81.9 15 70.4 .8 78.1 .8 85.1 9.7 92 .8 99.7 .8"/>
  <path class="st1" d="M100.7,32.8h-.4c-.4,0-.9.2-1.5.5v6.6h-1.4v-8.4h1.3v.6s0,0,.2-.1c0,0,.1,0,.2-.1,0,0,0,0,.2,0s.1,0,.2,0,0,0,.1,0c0,0,.1,0,.2,0s0,0,.2,0c0,0,.1,0,.2,0,.2,0,.3,0,.4,0h.3v1.3h0Z"/>
  <path class="st1" d="M91.8,38.7c.4,0,.8-.1,1.2-.4v-6.8h1.4v8.4h-1.3v-.4c-.5.3-1.1.4-1.7.4s-1.1-.2-1.4-.5c-.3-.3-.5-.8-.5-1.5v-6.4h1.4v6.2c0,.7.3,1,1,1Z"/>
  <path class="st1" d="M87.2,38.6v1.2s0,0-.1,0-.2,0-.3,0c-.3,0-.5,0-.8,0-1.4,0-2-.7-2-2v-5.3h-.9v-1.2h.9l.4-1.5h.9v1.5h1.7v1.2h-1.7v5.2c0,.6.3.8.9.8s.6,0,.9-.2Z"/>
  <path class="st1" d="M78.5,38.9c.4,0,.8-.2,1.2-.5v-2.4l-1.4.4c-.4,0-.6.2-.8.4-.1.2-.2.4-.2.7v.4c0,.3,0,.6.2.7.2.2.4.2.9.2ZM79.7,33.7c0-.4,0-.6-.3-.8-.2-.2-.6-.2-1.2-.2s-1.2,0-1.8.3v-1.2c.6-.2,1.3-.3,2.1-.3,1.7,0,2.5.8,2.5,2.3v6.2h-1.3v-.6c-.4.4-1,.6-1.7.6-1.3,0-2-.7-2-2v-.5c0-.5.1-1,.4-1.3.3-.3.7-.6,1.4-.8l1.9-.5s0-1.1,0-1.1Z"/>
  <path class="st1" d="M70,31.9c.6-.3,1.2-.4,1.7-.4s1,.2,1.3.5c.3.3.5.8.5,1.4v6.5h-1.4v-6.3c0-.6-.3-.8-.9-.8s-.8,0-1.3.3v6.8h-1.4v-8.4h1.3v.4h0Z"/>
  <polygon class="st0" points="44.2 .8 65.4 22.6 57.2 22.6 50.5 15.7 43.8 22.6 35.7 22.6 46.3 11.7 35.7 .8 44.2 .8"/>
  <path class="st1" d="M61.8.8h3.3c0,0,0,0,0,0h.3l-3.1,3.1c-1.7,1.7-5,3.2-7.4,3.2h-3.7c0,0,0,0,0,0h-.3l3.1-3.1c1.7-1.7,5-3.2,7.4-3.2h.4s0,0,0,0Z"/>
</svg>