<?xml version="1.0" encoding="UTF-8"?>
<svg width="217px" height="42px" viewBox="0 0 217 42" version="1.1" xmlns="http://www.w3.org/2000/svg" xmlns:xlink="http://www.w3.org/1999/xlink">
    <!-- Generator: Sketch 63.1 (92452) - https://sketch.com -->
    <title>Group 37</title>
    <desc>Created with Sketch.</desc>
    <g id="Symbols" stroke="none" stroke-width="1" fill="none" fill-rule="evenodd">
        <g id="nav-white" transform="translate(-1123.000000, -30.000000)">
            <g id="Group-37" transform="translate(1123.000000, 30.000000)">
                <path d="M69.21719,31.37449 C69.83809,31.10289 70.41839,30.96709 70.95739,30.96709 C71.49569,30.96709 71.93739,31.13019 72.28179,31.45499 C72.62689,31.77979 72.79909,32.24879 72.79909,32.85989 L72.79909,39.36849 L71.40119,39.36849 L71.40119,33.09299 C71.40119,32.51969 71.11489,32.23409 70.54229,32.23409 C70.12439,32.23409 69.70229,32.34049 69.27529,32.55399 L69.27529,39.36849 L67.90679,39.36849 L67.90679,30.99649 L69.21719,30.99649 L69.21719,31.37449 Z" id="Fill-1" fill="#94C120"></path>
                <path d="M76.58427,36.9663 L76.58427,37.4031 C76.58427,37.7237 76.65917,37.961 76.81037,38.1157 C76.96087,38.2711 77.25627,38.3488 77.69867,38.3488 C78.13967,38.3488 78.54497,38.199 78.91387,37.8973 L78.91387,35.4662 L77.53137,35.8449 C77.15267,35.9513 76.89997,36.085 76.77397,36.2453 C76.64727,36.4049 76.58427,36.6457 76.58427,36.9663 L76.58427,36.9663 Z M75.63787,31.1997 C76.19087,31.0156 76.89507,30.9232 77.74907,30.9232 C79.40877,30.9232 80.23897,31.6757 80.23897,33.1807 L80.23897,39.3687 L78.92857,39.3687 L78.92857,38.7716 C78.50157,39.1986 77.93877,39.4121 77.23947,39.4121 C75.89967,39.4121 75.23047,38.7373 75.23047,37.3877 L75.23047,36.9082 C75.23047,36.3643 75.37117,35.9247 75.65257,35.5901 C75.93397,35.2548 76.38547,35 77.00707,34.8257 L78.91387,34.3014 L78.91387,33.1807 C78.91387,32.8216 78.81657,32.5612 78.62337,32.4016 C78.42877,32.2413 78.01857,32.1608 77.39207,32.1608 C76.76627,32.1608 76.18177,32.2581 75.63787,32.4527 L75.63787,31.1997 Z" id="Fill-3" fill="#94C120"></path>
                <path d="M84.57792,29.49632 L84.57792,30.99642 L86.26702,30.99642 L86.26702,32.17592 L84.57792,32.17592 L84.57792,37.37342 C84.57792,37.93692 84.86912,38.21762 85.45152,38.21762 C85.73292,38.21762 86.04862,38.15952 86.39792,38.04332 L86.39792,39.28092 C86.38742,39.28092 86.34192,39.29072 86.25932,39.31032 C86.17672,39.32922 86.09202,39.34952 86.00452,39.36842 C85.74272,39.42652 85.49002,39.45592 85.24782,39.45592 C83.88842,39.45592 83.20872,38.79512 83.20872,37.47492 L83.20872,32.17592 L82.33512,32.17592 L82.33512,30.99642 L83.25282,30.99642 L83.66022,29.49632 L84.57792,29.49632 Z" id="Fill-5" fill="#94C120"></path>
                <path d="M90.98418,38.15987 C91.39158,38.15987 91.78988,38.03807 92.17838,37.79587 L92.17838,30.99677 L93.56158,30.99677 L93.56158,39.36877 L92.25118,39.36877 L92.25118,38.97537 C91.74578,39.25677 91.18858,39.39747 90.57608,39.39747 C89.96498,39.39747 89.48898,39.22317 89.14948,38.87317 C88.80998,38.52387 88.63988,38.01917 88.63988,37.35907 L88.63988,30.99677 L90.02308,30.99677 L90.02308,37.16937 C90.02308,37.83017 90.34368,38.15987 90.98418,38.15987" id="Fill-7" fill="#94C120"></path>
                <path d="M99.51613,30.95239 L99.85073,30.95239 L99.85073,32.24879 L99.41393,32.24879 C98.95823,32.24879 98.45843,32.43359 97.91453,32.80179 L97.91453,39.36849 L96.54603,39.36849 L96.54603,30.99649 L97.85643,30.99649 L97.85643,31.60829 C97.88513,31.58869 97.94113,31.54949 98.02373,31.49139 C98.10633,31.43329 98.15953,31.39689 98.18403,31.38149 C98.20783,31.36749 98.25683,31.33599 98.32963,31.28769 C98.40243,31.23869 98.45283,31.20999 98.48223,31.20019 C98.51163,31.19039 98.55713,31.16869 98.62083,31.13439 C98.68383,31.10079 98.73493,31.07909 98.77343,31.06929 C98.81193,31.05949 98.86303,31.04269 98.92603,31.01749 C98.98973,30.99439 99.04993,30.98179 99.10803,30.98179 C99.28303,30.96219 99.41883,30.95239 99.51613,30.95239" id="Fill-9" fill="#94C120"></path>
                <path d="M102.87907,36.9663 L102.87907,37.4031 C102.87907,37.7237 102.95397,37.961 103.10517,38.1157 C103.25497,38.2711 103.55107,38.3488 103.99277,38.3488 C104.43447,38.3488 104.83977,38.199 105.20867,37.8973 L105.20867,35.4662 L103.82617,35.8449 C103.44747,35.9513 103.19477,36.085 103.06877,36.2453 C102.94207,36.4049 102.87907,36.6457 102.87907,36.9663 L102.87907,36.9663 Z M101.93267,31.1997 C102.48567,31.0156 103.18987,30.9232 104.04387,30.9232 C105.70357,30.9232 106.53377,31.6757 106.53377,33.1807 L106.53377,39.3687 L105.22337,39.3687 L105.22337,38.7716 C104.79637,39.1986 104.23287,39.4121 103.53427,39.4121 C102.19447,39.4121 101.52527,38.7373 101.52527,37.3877 L101.52527,36.9082 C101.52527,36.3643 101.66597,35.9247 101.94737,35.5901 C102.22877,35.2548 102.68027,35 103.30187,34.8257 L105.20867,34.3014 L105.20867,33.1807 C105.20867,32.8216 105.11137,32.5612 104.91817,32.4016 C104.72357,32.2413 104.31337,32.1608 103.68687,32.1608 C103.06107,32.1608 102.47657,32.2581 101.93267,32.4527 L101.93267,31.1997 Z" id="Fill-11" fill="#94C120"></path>
                <polygon id="Fill-13" fill="#94C120" points="109.4604 39.36821 110.8289 39.36821 110.8289 28.76811 109.4604 28.76811"></polygon>
                <path d="M118.6178,36.9663 L118.6178,37.4031 C118.6178,37.7237 118.6927,37.961 118.8439,38.1157 C118.9937,38.2711 119.2898,38.3488 119.7322,38.3488 C120.1739,38.3488 120.5785,38.199 120.9474,37.8973 L120.9474,35.4662 L119.5642,35.8449 C119.1862,35.9513 118.9335,36.085 118.8075,36.2453 C118.6815,36.4049 118.6178,36.6457 118.6178,36.9663 L118.6178,36.9663 Z M117.6714,31.1997 C118.2244,31.0156 118.9286,30.9232 119.7826,30.9232 C121.4423,30.9232 122.2732,31.6757 122.2732,33.1807 L122.2732,39.3687 L120.9621,39.3687 L120.9621,38.7716 C120.5344,39.1986 119.9723,39.4121 119.2737,39.4121 C117.9339,39.4121 117.2633,38.7373 117.2633,37.3877 L117.2633,36.9082 C117.2633,36.3643 117.4047,35.9247 117.6861,35.5901 C117.9668,35.2548 118.419,35 119.0406,34.8257 L120.9474,34.3014 L120.9474,33.1807 C120.9474,32.8216 120.8501,32.5612 120.6562,32.4016 C120.4623,32.2413 120.0521,32.1608 119.4263,32.1608 C118.7998,32.1608 118.2146,32.2581 117.6714,32.4527 L117.6714,31.1997 Z" id="Fill-15" fill="#94C120"></path>
                <path d="M125.1985,39.36821 L126.567,39.36821 L126.567,31.09771 L125.1985,31.09771 L125.1985,39.36821 Z M126.6839,29.46041 C126.6839,29.99941 126.4172,30.26821 125.8831,30.26821 C125.349,30.26821 125.0823,29.99941 125.0823,29.46041 C125.0823,28.92141 125.349,28.65191 125.8831,28.65191 C126.4172,28.65191 126.6839,28.92141 126.6839,29.46041 L126.6839,29.46041 Z" id="Fill-16" fill="#94C120"></path>
                <path d="M132.53716,30.95239 L132.87246,30.95239 L132.87246,32.24879 L132.43496,32.24879 C131.97856,32.24879 131.47876,32.43359 130.93556,32.80179 L130.93556,39.36849 L129.56706,39.36849 L129.56706,30.99649 L130.87746,30.99649 L130.87746,31.60829 C130.90616,31.58869 130.96216,31.54949 131.04406,31.49139 C131.12666,31.43329 131.18126,31.39689 131.20506,31.38149 C131.22956,31.36749 131.27716,31.33599 131.35066,31.28769 C131.42346,31.23869 131.47386,31.20999 131.50326,31.20019 C131.53266,31.19039 131.57816,31.16869 131.64186,31.13439 C131.70486,31.10079 131.75526,31.07909 131.79376,31.06929 C131.83366,31.05949 131.88336,31.04269 131.94706,31.01749 C132.01076,30.99439 132.07096,30.98179 132.12906,30.98179 C132.30406,30.96219 132.43986,30.95239 132.53716,30.95239" id="Fill-17" fill="#94C120"></path>
                <path d="M138.82687,33.13646 C138.82687,31.66156 139.68087,30.92306 141.38887,30.92306 C142.00137,30.92306 142.54457,30.99166 143.01987,31.12746 L143.01987,32.39376 C142.53477,32.25866 142.04267,32.19006 141.54217,32.19006 C141.04237,32.19006 140.69307,32.27266 140.49427,32.43716 C140.29547,32.60306 140.19537,32.86486 140.19537,33.22396 L140.19537,37.15516 C140.19537,37.51426 140.29547,37.77676 140.49427,37.94126 C140.69307,38.10646 141.04937,38.18906 141.56387,38.18906 C142.07907,38.18906 142.56907,38.11136 143.03527,37.95596 L143.03527,39.23696 C142.47177,39.37276 141.92297,39.44066 141.38887,39.44066 C139.68087,39.44066 138.82687,38.70356 138.82687,37.22796 L138.82687,33.13646 Z" id="Fill-18" fill="#94C120"></path>
                <path d="M149.03294,33.16551 C149.03294,32.41861 148.65914,32.04411 147.91154,32.04411 C147.16394,32.04411 146.79084,32.41861 146.79084,33.16551 L146.79084,37.19891 C146.79084,37.94651 147.16394,38.31961 147.91154,38.31961 C148.65914,38.31961 149.03294,37.94651 149.03294,37.19891 L149.03294,33.16551 Z M145.43634,33.13611 C145.43634,32.43751 145.64004,31.88241 146.04744,31.46941 C146.45554,31.05711 147.07644,30.85061 147.91154,30.85061 C148.74664,30.85061 149.36964,31.05711 149.78264,31.46941 C150.19494,31.88241 150.40144,32.43751 150.40144,33.13611 L150.40144,37.22761 C150.40144,37.92691 150.19494,38.48271 149.78264,38.89501 C149.36964,39.30801 148.74664,39.51381 147.91154,39.51381 C147.07644,39.51381 146.45554,39.30801 146.04744,38.89501 C145.64004,38.48271 145.43634,37.92691 145.43634,37.22761 L145.43634,33.13611 Z" id="Fill-19" fill="#94C120"></path>
                <path d="M154.5516,31.37449 C155.1732,31.10289 155.7528,30.96709 156.2911,30.96709 C156.8301,30.96709 157.2718,31.13019 157.6162,31.45499 C157.9606,31.77979 158.1328,32.24879 158.1328,32.85989 L158.1328,39.36849 L156.7356,39.36849 L156.7356,33.09299 C156.7356,32.51969 156.4493,32.23409 155.8767,32.23409 C155.4588,32.23409 155.0367,32.34049 154.6097,32.55399 L154.6097,39.36849 L153.2412,39.36849 L153.2412,30.99649 L154.5516,30.99649 L154.5516,31.37449 Z" id="Fill-20" fill="#94C120"></path>
                <path d="M164.45205,32.23416 L163.46155,32.23416 C162.67545,32.23416 162.28205,32.60306 162.28205,33.34086 L162.28205,37.19856 C162.28205,37.84886 162.60265,38.17436 163.24315,38.17436 C163.75765,38.17436 164.16015,38.03856 164.45205,37.76696 L164.45205,32.23416 Z M164.45205,28.76846 L165.83525,28.76846 L165.83525,39.36856 L164.48145,39.36856 L164.48145,38.84356 C164.08315,39.22296 163.55885,39.41196 162.90855,39.41196 C162.25755,39.41196 161.76335,39.23486 161.42315,38.88066 C161.08365,38.52576 160.91355,38.01896 160.91355,37.35956 L160.91355,33.29746 C160.91355,32.57856 161.12215,32.01506 161.54005,31.60766 C161.95655,31.19956 162.53965,30.99656 163.28655,30.99656 L164.45205,30.99656 L164.45205,28.76846 Z" id="Fill-21" fill="#94C120"></path>
                <path d="M168.8204,39.36821 L170.1889,39.36821 L170.1889,31.09771 L168.8204,31.09771 L168.8204,39.36821 Z M170.3051,29.46041 C170.3051,29.99941 170.0377,30.26821 169.5036,30.26821 C168.9702,30.26821 168.7035,29.99941 168.7035,29.46041 C168.7035,28.92141 168.9702,28.65191 169.5036,28.65191 C170.0377,28.65191 170.3051,28.92141 170.3051,29.46041 L170.3051,29.46041 Z" id="Fill-22" fill="#94C120"></path>
                <path d="M174.59932,29.49632 L174.59932,30.99642 L176.28842,30.99642 L176.28842,32.17592 L174.59932,32.17592 L174.59932,37.37342 C174.59932,37.93692 174.89052,38.21762 175.47292,38.21762 C175.75432,38.21762 176.07072,38.15952 176.41932,38.04332 L176.41932,39.28092 C176.41022,39.28092 176.36402,39.29072 176.28072,39.31032 C176.19882,39.32922 176.11342,39.34952 176.02592,39.36842 C175.76412,39.42652 175.51212,39.45592 175.26852,39.45592 C173.91052,39.45592 173.23082,38.79512 173.23082,37.47492 L173.23082,32.17592 L172.35722,32.17592 L172.35722,30.99642 L173.27422,30.99642 L173.68162,29.49632 L174.59932,29.49632 Z" id="Fill-23" fill="#94C120"></path>
                <path d="M178.7345,39.36821 L180.103,39.36821 L180.103,31.09771 L178.7345,31.09771 L178.7345,39.36821 Z M180.2199,29.46041 C180.2199,29.99941 179.9525,30.26821 179.4184,30.26821 C178.885,30.26821 178.6183,29.99941 178.6183,29.46041 C178.6183,28.92141 178.885,28.65191 179.4184,28.65191 C179.9525,28.65191 180.2199,28.92141 180.2199,29.46041 L180.2199,29.46041 Z" id="Fill-24" fill="#94C120"></path>
                <path d="M186.55336,33.16551 C186.55336,32.41861 186.17956,32.04411 185.43196,32.04411 C184.68436,32.04411 184.31126,32.41861 184.31126,33.16551 L184.31126,37.19891 C184.31126,37.94651 184.68436,38.31961 185.43196,38.31961 C186.17956,38.31961 186.55336,37.94651 186.55336,37.19891 L186.55336,33.16551 Z M182.95676,33.13611 C182.95676,32.43751 183.16116,31.88241 183.56786,31.46941 C183.97596,31.05711 184.59686,30.85061 185.43196,30.85061 C186.26706,30.85061 186.89006,31.05711 187.30306,31.46941 C187.71536,31.88241 187.92186,32.43751 187.92186,33.13611 L187.92186,37.22761 C187.92186,37.92691 187.71536,38.48271 187.30306,38.89501 C186.89006,39.30801 186.26706,39.51381 185.43196,39.51381 C184.59686,39.51381 183.97596,39.30801 183.56786,38.89501 C183.16116,38.48271 182.95676,37.92691 182.95676,37.22761 L182.95676,33.13611 Z" id="Fill-25" fill="#94C120"></path>
                <path d="M192.07132,31.37449 C192.69292,31.10289 193.27252,30.96709 193.81082,30.96709 C194.34982,30.96709 194.79152,31.13019 195.13592,31.45499 C195.48032,31.77979 195.65252,32.24879 195.65252,32.85989 L195.65252,39.36849 L194.25532,39.36849 L194.25532,33.09299 C194.25532,32.51969 193.96902,32.23409 193.39642,32.23409 C192.97852,32.23409 192.55642,32.34049 192.12942,32.55399 L192.12942,39.36849 L190.76092,39.36849 L190.76092,30.99649 L192.07132,30.99649 L192.07132,31.37449 Z" id="Fill-26" fill="#94C120"></path>
                <path d="M198.5795,39.36821 L199.948,39.36821 L199.948,31.09771 L198.5795,31.09771 L198.5795,39.36821 Z M200.0656,29.46041 C200.0656,29.99941 199.7982,30.26821 199.2641,30.26821 C198.7293,30.26821 198.4626,29.99941 198.4626,29.46041 C198.4626,28.92141 198.7293,28.65191 199.2641,28.65191 C199.7982,28.65191 200.0656,28.92141 200.0656,29.46041 L200.0656,29.46041 Z" id="Fill-27" fill="#94C120"></path>
                <path d="M204.25706,31.37449 C204.87866,31.10289 205.45896,30.96709 205.99656,30.96709 C206.53626,30.96709 206.97796,31.13019 207.32236,31.45499 C207.66606,31.77979 207.83896,32.24879 207.83896,32.85989 L207.83896,39.36849 L206.44106,39.36849 L206.44106,33.09299 C206.44106,32.51969 206.15476,32.23409 205.58286,32.23409 C205.16496,32.23409 204.74286,32.34049 204.31586,32.55399 L204.31586,39.36849 L202.94736,39.36849 L202.94736,30.99649 L204.25706,30.99649 L204.25706,31.37449 Z" id="Fill-28" fill="#94C120"></path>
                <path d="M214.14386,34.19913 L214.14386,33.03433 C214.14386,32.67593 214.05146,32.41133 213.86666,32.24123 C213.68256,32.07113 213.38156,31.98573 212.96366,31.98573 C212.54716,31.98573 212.24616,32.07113 212.06136,32.24123 C211.87726,32.41133 211.78486,32.67593 211.78486,33.03433 L211.78486,34.19913 C211.78486,34.55893 211.87726,34.82353 212.06136,34.99363 C212.24616,35.16303 212.54716,35.24773 212.96366,35.24773 C213.38156,35.24773 213.68256,35.16303 213.86666,34.99363 C214.05146,34.82353 214.14386,34.55893 214.14386,34.19913 L214.14386,34.19913 Z M216.16826,31.53493 L215.67336,31.53493 C215.44866,31.53493 215.26036,31.57833 215.10496,31.66583 C215.37656,32.00603 215.51236,32.45753 215.51236,33.01963 L215.51236,34.21383 C215.51236,34.89353 215.30586,35.42273 214.89356,35.80073 C214.48056,36.18013 213.85756,36.37403 213.02246,36.38313 C212.56606,36.38313 212.33856,36.59733 212.33856,37.02363 C212.33856,37.22803 212.39946,37.37363 212.52056,37.46113 C212.64166,37.54863 212.85726,37.59203 213.16806,37.59203 L214.01296,37.59203 C215.39056,37.59203 216.08076,38.16953 216.08076,39.32453 L216.08076,39.57163 C216.08076,40.88273 215.15326,41.53723 213.29896,41.53723 L212.73126,41.53723 C211.67356,41.53723 210.87276,41.36783 210.32886,41.02763 L210.32886,39.74663 C210.96936,40.16383 211.76106,40.37313 212.70256,40.37313 L213.16806,40.37313 C213.75046,40.37313 214.16276,40.30453 214.40566,40.16873 C214.64856,40.03293 214.77036,39.82923 214.77036,39.55763 L214.77036,39.42673 C214.77036,39.19363 214.70946,39.02143 214.58836,38.90943 C214.46656,38.79813 214.23136,38.74213 213.88136,38.74213 L212.99306,38.74213 C211.74146,38.74213 211.11496,38.32003 211.11496,37.47513 L211.11496,37.24273 C211.11496,36.69883 211.37256,36.36913 211.88706,36.25223 C210.90706,35.97083 210.41636,35.29113 210.41636,34.21383 L210.41636,33.01963 C210.41636,32.33083 210.62776,31.79673 211.04986,31.41873 C211.47196,31.04003 212.06136,30.85033 212.81806,30.85033 C213.57546,30.85033 214.15856,30.96723 214.56596,31.19963 C214.77036,30.57943 215.23096,30.26863 215.94916,30.26863 L216.16826,30.26863 L216.16826,31.53493 Z" id="Fill-29" fill="#94C120"></path>
                <path d="M107.22397,7.98091 C107.22397,1.59481 110.62667,0.09261 116.35057,0.09261 L123.82727,0.09261 C132.86987,0.09261 134.04307,2.13521 133.98567,8.31411 L127.63807,8.31411 L127.63807,7.70861 C127.63807,6.13431 126.54887,5.68071 124.65887,5.68071 L117.72537,5.68071 C114.37377,5.68071 113.74517,7.34531 113.74517,10.06901 L113.74517,12.43081 C113.74517,15.60881 114.37377,16.81911 117.38307,16.81911 L124.17027,16.81911 C127.03607,16.81911 127.89497,16.51741 127.89497,13.79301 L134.24327,13.79301 L134.24327,15.85171 C134.24327,19.52391 132.98467,22.40651 126.60627,22.40651 L116.35057,22.40651 C110.62667,22.40651 107.22397,20.90571 107.22397,14.51891 L107.22397,7.98091 Z" id="Fill-30" fill="#0F4194"></path>
                <path d="M144.08163,14.51912 C144.08163,20.90592 147.48363,22.40672 153.20543,22.40672 L163.39113,22.40672 C169.11293,22.40672 172.51633,20.90592 172.51633,14.51912 L172.51633,7.98112 C172.51633,1.59502 169.11293,0.09282 163.39113,0.09282 L153.20543,0.09282 C147.48363,0.09282 144.08163,1.59502 144.08163,7.98112 L144.08163,14.51912 Z M150.60073,10.06922 C150.60073,7.34482 151.23073,5.68092 154.57813,5.68092 L162.01773,5.68092 C165.36583,5.68092 165.99653,7.34482 165.99653,10.06922 L165.99653,12.43102 C165.99653,15.60902 165.36583,16.81932 162.36143,16.81932 L154.23513,16.81932 C151.23073,16.81932 150.60073,15.60902 150.60073,12.43102 L150.60073,10.06922 Z" id="Fill-31" fill="#0F4194"></path>
                <polygon id="Fill-32" fill="#0F4194" points="182.6972 0.36295 192.451 0.36295 199.633 14.38045 206.8136 0.36295 216.5688 0.36295 216.5688 22.14065 210.3913 22.14065 210.3913 6.50545 210.3339 6.50545 202.0074 22.14065 197.2579 22.14065 188.9307 6.50545 188.8747 6.50545 188.8747 22.14065 182.6972 22.14065"></polygon>
                <path d="M-7e-05,14.42651 C-7e-05,20.81331 3.40263,22.31411 9.12373,22.31411 L19.31013,22.31411 C25.03123,22.31411 28.43463,20.81331 28.43463,14.42651 L28.43463,7.88781 C28.43463,1.50241 25.03123,0.00021 19.31013,0.00021 L9.12373,0.00021 C3.40263,0.00021 -7e-05,1.50241 -7e-05,7.88781 L-7e-05,14.42651 Z M6.51973,9.97661 C6.51973,7.25221 7.14973,5.58831 10.49713,5.58831 L17.93673,5.58831 C21.28483,5.58831 21.91413,7.25221 21.91413,9.97661 L21.91413,12.33841 C21.91413,15.51571 21.28483,16.72671 18.28043,16.72671 L10.15413,16.72671 C7.14973,16.72671 6.51973,15.51571 6.51973,12.33841 L6.51973,9.97661 Z" id="Fill-33" fill="#0F4194"></path>
                <polygon id="Fill-34" fill="#0F4194" points="81.08163 14.46648 69.61213 0.26628 77.27713 0.26628 84.25613 9.17238 91.23373 0.26628 98.89943 0.26628 87.42993 14.46648 87.42993 22.04818 81.08163 22.04818"></polygon>
                <path d="M64.22325,0.27923 L64.22955,0.27293 L60.97245,0.33243 C60.95915,0.33313 60.94445,0.33523 60.93045,0.33523 L60.57275,0.34153 C58.20605,0.38493 54.90415,1.82343 53.19755,3.55383 L50.10705,6.68703 L50.45845,6.68073 L50.45215,6.68703 L53.70855,6.62683 C53.72325,6.62683 53.73795,6.62473 53.75125,6.62473 L54.10895,6.61843 C56.47565,6.57503 59.77755,5.13653 61.48415,3.40613 L64.57465,0.27293 L64.22325,0.27923 Z" id="Fill-35" fill="#94C120"></path>
                <polygon id="Fill-36" fill="#0F4194" points="34.895 0.27272 45.4972 11.16052 34.895 22.04832 43.0255 22.04832 49.7343 15.15822 56.4438 22.04832 64.5743 22.04832 43.3699 0.27272"></polygon>
            </g>
        </g>
    </g>
</svg>