<svg xmlns="http://www.w3.org/2000/svg" width="23" height="18" viewBox="0 0 23 18">
  <path fill="#0F4194" d="M32.77,16.49 C32.6608507,15.6661868 32.348091,14.8825689 31.86,14.21 C31.2504937,13.5872732 30.4211792,13.2282626 29.55,13.21 C26.33,12.98 21.55,12.98 21.55,12.98 L21.55,12.98 C21.55,12.98 16.73,12.98 13.55,13.21 C12.6788208,13.2282626 11.8495063,13.5872732 11.24,14.21 C10.718765,14.8740613 10.3715975,15.657766 10.23,16.49 C10.0868235,17.7249911 10.0100464,18.9667777 10,20.21 L10,21.96 C10.0100464,23.2032223 10.0868235,24.4450089 10.23,25.68 C10.3375383,26.5072972 10.6503719,27.2945376 11.14,27.97 C11.8432148,28.5908585 12.7422676,28.9448163 13.68,28.97 C15.52,29.14 21.5,29.2 21.5,29.2 C21.5,29.2 26.33,29.2 29.55,28.96 C30.4221147,28.9460523 31.2529996,28.5863619 31.86,27.96 C32.348091,27.2874311 32.6608507,26.5038132 32.77,25.68 C32.9131765,24.4450089 32.9899536,23.2032223 33,21.96 L33,20.21 C32.9899536,18.9667777 32.9131765,17.7249911 32.77,16.49 M19.12,24.09 L19.12,17.61 L25.34,20.85 L19.12,24.09 Z" transform="translate(-10 -12)"/>
</svg>
